<?xml version="1.0" encoding="UTF-8"?>
<!-- Generated by Pixelmator Pro 3.6.15 -->
<svg width="1084" height="759" viewBox="0 0 1084 759" xmlns="http://www.w3.org/2000/svg">
    <linearGradient id="linearGradient1" x1="544.018711" y1="756.805269" x2="544.018711" y2="186.004" gradientUnits="userSpaceOnUse">
        <stop offset="1e-05" stop-color="#199d86" stop-opacity="1"/>
        <stop offset="1" stop-color="#30edc2" stop-opacity="1"/>
    </linearGradient>
    <path id="Path-copy-copy" fill="url(#linearGradient1)" fill-rule="evenodd" stroke="none" d="M 539.340027 189.891968 C 536.677979 192.03302 523.210999 205.195007 509.414001 219.141968 C 486.270996 242.536011 464.292999 266.010986 377.596985 359.936005 C 360.049988 378.946014 339.333008 401.25 331.559998 409.5 C 323.786011 417.75 311.160004 431.25 303.502014 439.5 C 290.028992 454.014008 281.924988 462.669006 244.979004 502 C 210.126007 539.104004 198.149002 551.830017 180.5 570.517029 C 151.186996 601.552002 130.449997 623.554016 114.507004 640.53302 C 106.260002 649.315002 95.446098 660.775024 90.474098 666 C 80.724098 676.247009 60.439098 697.969971 41.918098 718 C 17.709101 744.18103 13.6671 750.096008 17.4221 753.849976 C 19.8871 756.315979 53.093102 757.646973 76.500099 756.218994 C 97.557098 754.934021 107.549004 752.380005 117.452003 745.752014 C 125.619003 740.284973 159.223007 706.611023 194 669.044006 C 195.925003 666.965027 210.065002 651.59198 225.421997 634.882019 C 240.779007 618.171997 254.089005 603.825012 254.998993 603 C 255.910004 602.174988 271.234009 585.75 289.053009 566.5 C 342.29599 508.981995 385.94101 461.980011 393.518005 454 C 397.434998 449.875 404.208008 442.674988 408.569 438 C 412.929993 433.325012 419.910004 425.899994 424.07901 421.5 C 428.248993 417.100006 447.20401 397.075012 466.200012 377 C 515.981995 324.391998 540.281982 301 545.14801 301 C 551.590027 301 578.859009 328.213013 660.890015 416.5 C 685.929993 443.450012 706.885986 465.993988 707.458008 466.598999 C 708.031006 467.203003 712.809998 472.377991 718.078003 478.098999 C 740.486023 502.433014 792.429993 558.541016 792.976013 559 C 793.302979 559.275024 799.843994 566.25 807.512024 574.5 C 815.179016 582.75 828.663025 597.16803 837.476013 606.539978 C 846.289001 615.911011 860.015991 630.536011 867.97998 639.039978 C 875.94397 647.54303 886.549988 658.775024 891.549988 664 C 896.549988 669.224976 914.090027 687.854004 930.528992 705.39801 C 965.973999 743.22699 972.156006 748.823975 981.890015 751.895996 C 993.674988 755.616028 1000.564026 756.265015 1029.5 756.383972 C 1066.959961 756.539001 1073.109985 755.565979 1071.640015 749.71698 C 1070.27002 744.237976 1055.369995 727.044006 1016.450012 686 C 1012.01001 681.325012 1004.599976 673.450012 999.982971 668.5 C 991.116028 659 983.435974 650.940002 959.934998 626.469971 C 951.995972 618.203979 931.031006 595.929016 913.346985 576.969971 C 867.60498 527.932983 860.530029 520.370972 853.025024 512.5 C 849.35498 508.649994 837.419006 495.825012 826.500977 484 C 815.583008 472.174988 795.591003 450.583008 782.075012 436.019012 C 768.559021 421.45401 745.599976 396.70401 731.05603 381.019012 C 716.513 365.333008 701.164001 348.899994 696.948975 344.5 C 687.58197 334.722992 658.072021 302.684998 632.5 274.531006 C 575.515991 211.792969 550.008972 186.03302 544.840027 186.004028 C 544.47699 186.002014 542.002014 187.750977 539.340027 189.891968 Z"/>
    <linearGradient id="linearGradient2" x1="541.565491" y1="603.98523" x2="541.565491" y2="2.220093" gradientUnits="userSpaceOnUse">
        <stop offset="1e-05" stop-color="#3478f6" stop-opacity="1"/>
        <stop offset="1" stop-color="#53b6f9" stop-opacity="1"/>
    </linearGradient>
    <path id="Path-copy-4-copy" fill="url(#linearGradient2)" fill-rule="evenodd" stroke="none" d="M 539.547974 4.11499 C 534.81897 6.676025 516.690979 24.73999 468.46701 74.945984 C 448.684998 95.541016 420.575012 124.807983 406 139.984985 C 357.515991 190.468994 323.733002 226.184021 292.477997 260 C 240.509995 316.225006 215.514008 342.808014 173.052994 387.01001 C 159.056 401.57901 142.005997 419.350006 135.162994 426.5 C 128.319 433.649994 119.047997 443.325012 114.558998 448 C 86.130096 477.609009 49.398102 516.869019 31.208099 537.088989 C 15.1201 554.971985 7.75805 564.218018 3.91405 571.36499 C 1.255055 576.309021 0.855052 577.921997 1.363052 581.632996 C 1.695052 584.054016 2.65505 587.366028 3.49605 588.992004 C 5.28005 592.442017 12.1871 599.411011 16.500101 602.112976 C 19.841101 604.205994 27.2321 604.622986 31.5961 602.963013 C 40.2771 599.663025 58.016102 582.703003 111.575996 526.5 C 122.583 514.950012 142.143005 494.466003 155.044006 480.980988 C 167.945007 467.494995 186.824997 447.737 197 437.072998 C 207.175003 426.410004 216.205994 416.967987 217.070007 416.09201 C 218.845993 414.290985 265.674011 364.96701 295.045013 333.962006 C 329.036987 298.07901 343.122009 283.088989 365.013 259.5 C 376.752014 246.849976 393.132996 229.299988 401.415985 220.5 C 409.697998 211.700012 416.929993 204.013 417.487 203.417969 C 427.147003 193.096008 467.006989 150.833984 474.471985 143 C 496.884003 119.478027 536.812988 80.242981 541.385986 77.247009 C 546.213013 74.085022 546.307983 74.067993 549.302002 75.773987 C 554.184021 78.554993 599.403015 124.080017 628.492981 155.5 C 643.26001 171.450012 655.849976 184.950012 656.471985 185.5 C 658.002014 186.85498 719.81897 253.514008 738.5 273.954987 C 746.75 282.981995 760.638 298.048004 769.362 307.43399 C 778.085999 316.820007 798.776978 339.125 815.340027 357 C 831.903992 374.875 852.452026 396.924988 861.002014 406 C 869.552002 415.075012 885.299011 431.950012 895.994019 443.5 C 906.689026 455.049988 922.653992 472.14801 931.469971 481.494995 C 940.286987 490.84201 955.778015 507.266998 965.89502 517.994995 C 995.486023 549.372986 1047.109985 600.416016 1051.150024 602.299988 C 1056.040039 604.578003 1061.079956 604.442017 1066.52002 601.88501 C 1072.599976 599.026978 1079.449951 591.255005 1080.869995 585.590027 C 1083.430054 575.429016 1081.76001 569.895996 1072.77002 558.781982 C 1063.48999 547.307007 1022.450012 502.227997 995.588989 473.998993 C 991.140015 469.322998 966.575012 443.011993 941 415.528992 C 915.424988 388.04599 878.75 348.664001 859.5 328.013 C 840.25 307.362 807.849976 272.490997 787.5 250.520996 C 767.150024 228.552002 735.875 194.84198 718 175.610962 C 700.125 156.380005 673.575012 127.757996 659 112.007019 C 590.336975 37.802979 568.900024 15.596985 557.747986 7.124023 C 550.643005 1.726013 545.525024 0.880005 539.547974 4.11499 Z"/>
    <linearGradient id="linearGradient3" x1="1003.624126" y1="358.526921" x2="1003.624126" y2="271.169842" gradientUnits="userSpaceOnUse">
        <stop offset="1e-05" stop-color="#199d86" stop-opacity="1"/>
        <stop offset="1" stop-color="#30edc2" stop-opacity="1"/>
    </linearGradient>
    <path id="Path-copy-5-copy" fill="url(#linearGradient3)" fill-rule="evenodd" stroke="none" d="M 993.286987 273.412994 C 989.869995 274.682007 985.89502 276.493988 984.455017 277.437988 C 975.18103 283.514008 965.5 296.59201 962.585022 306.983002 C 959.151001 319.220001 963.861023 332.536987 976.244995 345.605011 C 987.616028 357.602997 997.603027 360.791992 1012.070007 357.041992 C 1032.069946 351.856995 1041.719971 341.350006 1045.219971 320.924011 C 1047.51001 307.579987 1042.339966 293.101013 1031.449951 282.369995 C 1026.119995 277.119995 1024.099976 275.864014 1017.359985 273.619995 C 1007.73999 270.415985 1001.5 270.362 993.286987 273.412994 Z"/>
    <linearGradient id="linearGradient4" x1="939.70166" y1="148.322036" x2="772.510925" y2="148.322036" gradientUnits="userSpaceOnUse">
        <stop offset="1e-05" stop-color="#1288c7" stop-opacity="1"/>
        <stop offset="1" stop-color="#26ddef" stop-opacity="1"/>
    </linearGradient>
    <path id="Path-copy-6-copy" fill="url(#linearGradient4)" fill-rule="evenodd" stroke="none" d="M 788.002014 64.099976 C 782.26001 65.223999 779.244019 67.497009 775.5 73.518005 C 771.963989 79.205994 771.551025 85.453003 774.336975 91.13501 C 778.929993 100.505005 826.622986 152.52002 876.987 203.088013 C 896.890991 223.072998 905.265015 229.937012 912.752014 232.406006 C 916.916016 233.780029 918.145996 233.801025 922.755005 232.575012 C 930.296021 230.570984 934.172974 227.988037 936.822021 223.205017 C 941.721008 214.356018 940.304016 202.924011 933.06897 192.936035 C 921.76001 177.325012 823.843018 75.593994 813.755005 68.976013 C 809.796997 66.379028 806.039978 64.864014 801.672974 64.104004 C 794.583008 62.869019 794.289978 62.869019 788.002014 64.099976 Z"/>
    <linearGradient id="linearGradient5" x1="148.5" y1="146.563766" x2="318.701233" y2="146.563766" gradientUnits="userSpaceOnUse">
        <stop offset="1e-05" stop-color="#1288c7" stop-opacity="1"/>
        <stop offset="1" stop-color="#26ddef" stop-opacity="1"/>
    </linearGradient>
    <path id="Path-copy-7-copy" fill="url(#linearGradient5)" fill-rule="evenodd" stroke="none" d="M 287.339996 61.632019 C 285.052002 62.442993 279.652008 66.083984 275.339996 69.723022 C 263.354004 79.839966 168.197998 175.367004 160.587997 184.924011 C 149.434006 198.932983 148.5 200.990967 148.5 211.572998 C 148.5 219.760986 148.764008 221.044983 151.205994 224.734985 C 153.294006 227.890015 155.184998 229.299988 159.492996 230.911987 C 170.179001 234.910034 176.604996 233.073975 189 222.483032 C 196.692993 215.910034 241.445007 171.619019 272.872986 139.473999 C 313.044006 98.385986 321.166992 87.174988 318.123993 77.018982 C 316.152008 70.437988 310.721008 65.833984 301.233002 62.697998 C 291.929993 59.622986 292.816986 59.690979 287.339996 61.632019 Z"/>
    <linearGradient id="linearGradient6" x1="80.940765" y1="358.235839" x2="80.940765" y2="273.102287" gradientUnits="userSpaceOnUse">
        <stop offset="1e-05" stop-color="#199d86" stop-opacity="1"/>
        <stop offset="1" stop-color="#30edc2" stop-opacity="1"/>
    </linearGradient>
    <path id="Path-copy-8-copy" fill="url(#linearGradient6)" fill-rule="evenodd" stroke="none" d="M 70.267097 274.053986 C 63.5401 275.381989 59.545101 277.747009 53.760101 283.825989 C 47.189098 290.730988 43.788101 296.397003 40.4081 306.070007 C 37.550098 314.251007 37.660099 317.765991 41.0881 327.787994 C 45.280102 340.044006 56.356098 352.031006 67.140099 355.981995 C 87.274101 363.359985 109.351997 352.174988 120.401001 329 C 123.156998 323.220001 123.5 321.501007 123.5 313.479004 C 123.5 305.309998 123.191002 303.829987 120.228996 297.813995 C 115.954002 289.130005 109.200996 281.725006 102.703003 278.595001 C 97.716103 276.192993 82.231102 272.890015 77.000099 273.113007 C 75.625099 273.17099 72.5951 273.595001 70.267097 274.053986 Z"/>
    <linearGradient id="linearGradient7" x1="543.713463" y1="756.466546" x2="543.713463" y2="414.601891" gradientUnits="userSpaceOnUse">
        <stop offset="1e-05" stop-color="#1288c7" stop-opacity="1"/>
        <stop offset="1" stop-color="#26ddef" stop-opacity="1"/>
    </linearGradient>
    <path id="Path-copy-3-copy" fill="url(#linearGradient7)" fill-rule="evenodd" stroke="none" d="M 539.84198 418.187012 C 529.981018 425.924011 491.506012 465.230988 448.014008 512 C 439.575012 521.075012 429.473999 531.875 425.566986 536 C 421.661011 540.125 412.171997 550.249023 404.481995 558.497986 C 396.791992 566.747986 377.899994 586.786987 362.5 603.030029 C 264.253998 706.655029 233.602005 740.067993 229.490997 748.018005 C 227.666 751.546997 228.709 754.424988 232.248993 755.630981 C 233.487 756.052979 244.850006 756.362976 257.5 756.320007 C 279.595001 756.244019 280.825989 756.135986 288.789001 753.564026 C 295.548004 751.382019 298.317993 749.815002 303.789001 745.073975 C 311.955994 737.999023 336.998993 712.609985 363.045013 685 C 373.681 673.724976 428.25 616.276978 436.5 607.502991 C 469.98999 571.888 511.213013 529.007019 519.497009 521.169983 C 534.432007 507.040009 544.880981 500.23999 548.533997 502.272003 C 557.242981 507.115997 583.192017 532.448975 624.054016 576 C 632.052979 584.525024 648.937988 602.525024 661.577026 616 C 674.215027 629.474976 703.932983 661.424988 727.61499 687 C 751.297974 712.575012 774.460999 737.062012 779.086975 741.414978 C 793.161011 754.656006 799.224976 756.414001 831 756.465027 C 854.815979 756.504028 858.228027 755.822021 858.799988 750.908997 C 859.281982 746.773987 850.870972 736.445984 818.539978 701.47699 C 811.91803 694.315002 802.450012 683.991028 797.5 678.534973 C 767.088989 645.015015 712.825989 586.091003 692.945984 565 C 684.909973 556.474976 669.174988 539.599976 657.979004 527.5 C 598.695007 463.429993 555.689026 419.958008 546.34198 414.653015 C 545.705994 414.291992 542.781006 415.881989 539.84198 418.187012 Z"/>
    <linearGradient id="linearGradient8" x1="542.417274" y1="757.018083" x2="542.417274" y2="624.009996" gradientUnits="userSpaceOnUse">
        <stop offset="1e-05" stop-color="#1d3d52" stop-opacity="1"/>
        <stop offset="1" stop-color="#23435e" stop-opacity="1"/>
    </linearGradient>
    <path id="Path-copy-2-copy" fill="url(#linearGradient8)" fill-rule="evenodd" stroke="none" d="M 539.445984 627.10498 C 533.551025 630.804993 485.556 678.729004 460.934998 705.5 C 428.563995 740.697998 423 747.327026 423 750.695984 C 423 751.474976 425.115997 753.047974 427.701996 754.192017 C 437.492004 758.52301 489.074005 757.692017 504.406006 752.955994 C 508.923004 751.560974 512.588013 749.416992 517.58197 745.247986 C 533.56897 731.901001 539.924011 727.004028 543.421021 725.335999 C 547.057007 723.60199 547.205994 723.612976 551.551025 725.916992 C 553.984009 727.208984 561.775024 733.763 568.862976 740.481995 C 583.414978 754.278992 583.357971 754.250977 601.77002 756.138977 C 615.60199 757.557007 654.39502 756.734009 658.273987 754.940002 C 664.869995 751.888977 663.033997 747.823975 646.541992 728.963989 C 594.913025 669.921021 550.736023 624.057983 545.445984 624.01001 C 544.866028 624.004028 542.166016 625.396973 539.445984 627.10498 Z"/>
</svg>
