<?xml version="1.0" encoding="UTF-8"?>
<!-- Generated by Pixelmator Pro 3.6.15 -->
<svg width="2869" height="755" viewBox="0 0 2869 755" xmlns="http://www.w3.org/2000/svg">
    <path id="Path" fill="#1d8ed5" fill-rule="evenodd" stroke="none" d="M 1136.449951 205.260986 C 1136.189941 205.953979 1136.089966 220.016968 1136.22998 236.510986 L 1136.5 266.5 L 1195.410034 266.757996 C 1240.52002 266.955994 1254.670044 267.307007 1255.849976 268.257996 C 1257.069946 269.248993 1257.22998 269.247009 1256.630005 268.25 C 1256.170044 267.480988 1256.439941 267 1257.319946 267 C 1258.400024 267 1257.800049 269.401001 1254.880005 276.75 C 1252.75 282.113007 1250.599976 287.399994 1250.099976 288.5 C 1248.180054 292.779999 1246.01001 297.940002 1241.5 309 C 1236.959961 320.128998 1235.959961 322.528992 1232.719971 330 C 1231.890015 331.924988 1230.209961 335.975006 1228.97998 339 C 1227.76001 342.024994 1226.180054 345.850006 1225.47998 347.5 C 1224.77002 349.149994 1222.079956 355.674988 1219.5 362 C 1215.069946 372.85199 1214.02002 375.348999 1210.579956 383.25 C 1209.810059 385.037994 1207.51001 390.549988 1205.48999 395.5 C 1203.459961 400.450012 1201.170044 405.962006 1200.400024 407.75 C 1199.630005 409.537994 1198.369995 412.462006 1197.599976 414.25 C 1196.819946 416.037994 1194.079956 422.674988 1191.5 429 C 1186.900024 440.265015 1185.530029 443.537994 1182.5 450.401001 C 1181.680054 452.272003 1181 454.076996 1181 454.411987 C 1181 454.747009 1180.050049 457.153992 1178.880005 459.760986 C 1175.719971 466.846985 1174.630005 469.433014 1169.5 482 C 1166.920044 488.325012 1164.180054 494.962006 1163.400024 496.75 C 1162.630005 498.537994 1161.369995 501.462006 1160.599976 503.25 C 1159.819946 505.037994 1157.079956 511.674988 1154.48999 518 C 1151.910034 524.325012 1148.719971 531.875977 1147.400024 534.780029 C 1146.079956 537.682983 1145 540.327026 1145 540.655029 C 1145 540.981995 1143.819946 544.005981 1142.369995 547.375 C 1138.310059 556.833984 1137.459961 558.859985 1133.599976 568.262024 L 1130 577.02301 L 1130 607.405029 C 1130 634.185974 1130.189941 637.857971 1131.579956 638.393005 C 1133.640015 639.182983 1325.800049 639.161011 1328.75 638.369995 L 1331 637.767029 L 1331 607.419006 C 1331 578.437988 1330.910034 577.023987 1329.069946 576.034973 C 1327.790039 575.353027 1305.780029 575 1264.569946 575 C 1230.160034 575 1202 574.815002 1202 574.588989 C 1202 573.070984 1206.439941 563 1207.109985 563 C 1207.560059 563 1207.640015 562.211975 1207.280029 561.25 C 1206.699951 559.708984 1206.829956 559.666016 1208.339966 560.893005 C 1209.280029 561.65802 1210.339966 561.995972 1210.689941 561.643005 C 1211.040039 561.289001 1210.810059 561 1210.170044 561 C 1208.829956 561 1208.579956 555.880981 1209.839966 554.450012 C 1210.300049 553.927979 1212.589966 548.775024 1214.939941 543 C 1219.050049 532.869019 1220.369995 529.726013 1223.420044 522.75 C 1224.199951 520.961975 1225.800049 517.025024 1226.969971 514 C 1228.140015 510.975006 1229.699951 507.149994 1230.439941 505.5 C 1231.189941 503.850006 1233.910034 497.325012 1236.47998 491 C 1239.050049 484.674988 1241.839966 477.924988 1242.680054 476 C 1243.52002 474.075012 1244.560059 471.600006 1245 470.5 C 1245.439941 469.399994 1246.47998 466.924988 1247.310059 465 C 1248.150024 463.075012 1250.48999 457.450012 1252.51001 452.5 C 1256.099976 443.75 1257.469971 440.48999 1260.420044 433.75 C 1261.199951 431.962006 1263.949951 425.325012 1266.52002 419 C 1269.089966 412.674988 1271.810059 406.149994 1272.560059 404.5 C 1273.300049 402.850006 1274.859985 399.024994 1276.030029 396 C 1277.199951 392.975006 1278.800049 389.037994 1279.579956 387.25 C 1282.540039 380.47699 1283.910034 377.239014 1287.48999 368.5 C 1289.51001 363.549988 1291.849976 357.924988 1292.689941 356 C 1293.52002 354.075012 1294.560059 351.600006 1295 350.5 C 1295.439941 349.399994 1296.47998 346.924988 1297.310059 345 C 1298.150024 343.075012 1300.48999 337.450012 1302.51001 332.5 C 1306.209961 323.475006 1307.709961 319.927002 1310.5 313.598999 C 1311.319946 311.727997 1312 309.923004 1312 309.588013 C 1312 309.252991 1312.949951 306.846008 1314.119995 304.239014 C 1317.300049 297.100006 1318.390015 294.518005 1323.48999 282 C 1326.069946 275.674988 1328.810059 269.192993 1329.589966 267.596008 C 1330.699951 265.299988 1331 258.675995 1331 235.927979 C 1331 220.108032 1330.72998 206.452026 1330.390015 205.582031 C 1329.839966 204.155029 1320.369995 204 1233.359985 204 C 1156.699951 204 1136.839966 204.257996 1136.449951 205.260986 Z M 1367.75 359.744995 C 1367.430054 557.468994 1367.900024 637.25 1369.390015 638.234985 C 1370.719971 639.112976 1551.140015 639.268005 1553.420044 638.393005 C 1554.810059 637.857971 1555 634.236023 1555 607.974976 C 1555 591.578979 1554.72998 577.452026 1554.390015 576.58197 C 1553.849976 575.164001 1547.719971 575 1495.390015 575 L 1437 575 L 1437 512.51001 L 1437 450.019989 L 1483.75 449.76001 L 1530.5 449.5 L 1530.77002 419 C 1531.01001 391.213989 1530.880005 388.389008 1529.319946 387.25 C 1528.02002 386.294006 1516.97998 386 1482.310059 386 L 1437 386 L 1437 326.507996 L 1437 267.015991 L 1495.75 266.757996 L 1554.5 266.5 L 1554.5 235.5 L 1554.5 204.5 L 1461.25 204.244995 L 1368 203.98999 Z M 1596.76001 382.25 C 1596.619995 480.287994 1596.719971 578.049988 1597 599.5 L 1597.5 638.5 L 1626 638.780029 C 1641.680054 638.934998 1655.51001 638.814026 1656.75 638.510986 L 1659 637.961975 L 1659 485.781006 C 1659 389.84201 1659.349976 333.950989 1659.949951 334.549988 C 1660.469971 335.071991 1661.630005 338.200012 1662.540039 341.5 C 1663.439941 344.799988 1664.609985 349.075012 1665.150024 351 C 1665.689941 352.924988 1666.51001 356.075012 1666.969971 358 C 1667.839966 361.647003 1672.589966 379.053986 1678.160034 399 C 1678.689941 400.924988 1679.51001 404.075012 1679.969971 406 C 1680.430054 407.924988 1681.719971 412.875 1682.849976 417 C 1687.569946 434.303009 1688.209961 436.640015 1689.02002 439.5 C 1689.47998 441.149994 1690.76001 445.875 1691.849976 450 C 1694.810059 461.17099 1699.969971 480.209015 1702.150024 488 C 1702.689941 489.924988 1703.51001 493.075012 1703.969971 495 C 1704.73999 498.239014 1706.079956 503.194 1711.959961 524.5 C 1713.170044 528.900024 1714.98999 535.650024 1716 539.5 C 1717.02002 543.349976 1718.579956 549.200012 1719.469971 552.5 C 1720.369995 555.799988 1722.02002 561.875 1723.140015 566 C 1724.26001 570.125 1725.560059 574.849976 1726.02002 576.5 C 1726.47998 578.150024 1727.76001 582.875 1728.849976 587 C 1731.810059 598.171021 1736.969971 617.208984 1739.150024 625 C 1739.689941 626.924988 1740.48999 630.179016 1740.930054 632.231995 C 1742.459961 639.403015 1740.430054 639.054993 1778.880005 638.763 L 1813.5 638.5 L 1813.5 421.5 L 1813.5 204.5 L 1783 204.5 L 1752.5 204.5 L 1752.25 327.832001 C 1752.050049 422.730988 1751.719971 451.071991 1750.800049 450.766998 C 1749.550049 450.351013 1749.050049 448.959991 1746.02002 437.5 C 1741.650024 420.985992 1739.5 413.046997 1735.849976 400 C 1735.310059 398.075012 1734.48999 394.924988 1734.030029 393 C 1731.790039 383.71701 1725.699951 361.178986 1724.339966 357.192993 C 1723.51001 354.727997 1723.02002 351.673004 1723.26001 350.404999 C 1723.51001 349.13501 1723.150024 347.889008 1722.47998 347.630005 C 1721.800049 347.371002 1721.02002 345.885986 1720.73999 344.32901 C 1720.459961 342.77301 1719.300049 338.125 1718.170044 334 C 1717.030029 329.875 1715.369995 323.799988 1714.459961 320.5 C 1713.560059 317.200012 1712.390015 312.924988 1711.849976 311 C 1711.310059 309.075012 1710.48999 305.924988 1710.030029 304 C 1709.569946 302.075012 1708.280029 297.125 1707.150024 293 C 1702.449951 275.763 1701.780029 273.338989 1700.849976 270 C 1700.310059 268.075012 1699.47998 264.924988 1699 263 C 1698.52002 261.075012 1697.689941 257.924988 1697.160034 256 C 1696.619995 254.075012 1695.26001 249.125 1694.140015 245 C 1690.939941 233.226013 1688.910034 225.796021 1687.849976 222 C 1686.680054 217.844971 1685.349976 212.643982 1684.400024 208.5 C 1684.01001 206.849976 1683.209961 205.169006 1682.599976 204.765015 C 1681.98999 204.360962 1662.48999 204.023987 1639.26001 204.015015 L 1597.01001 204 Z M 1861.609985 205.56897 C 1861.280029 206.445984 1861 303.860992 1861 422.046997 C 1861 633.471985 1861.030029 636.945984 1862.930054 637.965027 C 1865.22998 639.19397 1927.839966 639.390991 1929.75 638.174011 C 1930.75 637.541016 1930.949951 593.432007 1930.75 420.940002 L 1930.5 204.5 L 1896.359985 204.237 C 1865.880005 204.002014 1862.160034 204.14502 1861.609985 205.56897 Z M 1958.48999 206.244995 C 1958.189941 207.484985 1958.069946 221.549988 1958.219971 237.5 L 1958.5 266.5 L 1993.75 266.763 L 2029 267.026001 L 2029 451.977997 C 2029 633.810974 2029.030029 636.947021 2030.930054 637.965027 C 2033.01001 639.078003 2094.600098 639.473999 2097.419922 638.393005 C 2098.850098 637.843018 2099 620.526001 2099 452.406006 L 2099 267.026001 L 2134.25 266.763 L 2169.5 266.5 L 2169.5 235.5 L 2169.5 204.5 L 2064.27002 204.244995 L 1959.040039 203.990967 Z M 2200.570068 204.888 C 2200.26001 205.390991 2200 302.904999 2199.98999 421.585999 C 2199.97998 594.140015 2200.22998 637.528992 2201.23999 638.169006 C 2202.959961 639.262024 2267.75 639.219971 2268.419922 638.125 C 2268.719971 637.643982 2269.080078 596.107971 2269.22998 545.822021 L 2269.5 454.394989 L 2272 453.946991 C 2276.570068 453.128998 2343.820068 453.485992 2344.669922 454.333008 C 2345.120117 454.790985 2345.719971 496.415985 2346 546.833008 L 2346.5 638.5 L 2380 638.742004 C 2398.419922 638.875 2414 638.650024 2414.620117 638.242004 C 2416.100098 637.26001 2416.399902 586.296997 2416.179932 373.25 L 2416 204 L 2381 204 L 2346.01001 204 L 2345.75 296.75 L 2345.5 389.5 L 2307.5 389.5 L 2269.5 389.5 L 2269 297 L 2268.5 204.5 L 2234.820068 204.237 C 2215.219971 204.083984 2200.899902 204.356018 2200.570068 204.888 Z M 2560.610107 205.56897 C 2560.280029 206.445984 2560 303.860992 2560 422.046997 C 2560 633.471985 2560.030029 636.945984 2561.929932 637.965027 C 2564.22998 639.19397 2626.840088 639.390991 2628.75 638.174011 C 2629.75 637.541016 2629.949951 593.432007 2629.75 420.940002 L 2629.5 204.5 L 2595.360107 204.237 C 2564.879883 204.002014 2561.159912 204.14502 2560.610107 205.56897 Z M 2657.48999 206.244995 C 2657.189941 207.484985 2657.070068 221.549988 2657.219971 237.5 L 2657.5 266.5 L 2692.75 266.763 L 2728 267.026001 L 2728 451.977997 C 2728 633.810974 2728.030029 636.947021 2729.929932 637.965027 C 2732.01001 639.078003 2793.600098 639.473999 2796.419922 638.393005 C 2797.850098 637.843018 2798 620.526001 2798 452.406006 L 2798 267.026001 L 2833.25 266.763 L 2868.5 266.5 L 2868.5 235.5 L 2868.5 204.5 L 2763.27002 204.244995 L 2658.040039 203.990967 Z M 1751.930054 456.25 C 1751.869995 458.973999 1751.719971 459.175995 1751 457.5 C 1749.810059 454.737 1749.810059 453 1751 453 C 1751.550049 453 1751.969971 454.462006 1751.930054 456.25 Z"/>
    <linearGradient id="linearGradient1" x1="543.018711" y1="753.805269" x2="543.018711" y2="183.004" gradientUnits="userSpaceOnUse">
        <stop offset="0" stop-color="#199d86" stop-opacity="1"/>
        <stop offset="1" stop-color="#30edc2" stop-opacity="1"/>
    </linearGradient>
    <path id="Path-copy" fill="url(#linearGradient1)" fill-rule="evenodd" stroke="none" d="M 538.340027 186.891968 C 535.677979 189.03302 522.210999 202.195007 508.414001 216.141968 C 485.270996 239.536011 463.292999 263.010986 376.596985 356.936005 C 359.049988 375.946014 338.333008 398.25 330.559998 406.5 C 322.786011 414.75 310.160004 428.25 302.502014 436.5 C 289.028992 451.014008 280.924988 459.669006 243.979004 499 C 209.126007 536.104004 197.149002 548.830017 179.5 567.517029 C 150.186996 598.552002 129.449997 620.554016 113.507004 637.53302 C 105.260002 646.315002 94.446098 657.775024 89.474098 663 C 79.724098 673.247009 59.439098 694.969971 40.918098 715 C 16.709101 741.18103 12.6671 747.096008 16.4221 750.849976 C 18.8871 753.315979 52.093102 754.646973 75.500099 753.218994 C 96.557098 751.934021 106.549004 749.380005 116.452003 742.752014 C 124.619003 737.284973 158.223007 703.611023 193 666.044006 C 194.925003 663.965027 209.065002 648.59198 224.421997 631.882019 C 239.779007 615.171997 253.089005 600.825012 253.998993 600 C 254.910004 599.174988 270.234009 582.75 288.053009 563.5 C 341.29599 505.981995 384.94101 458.980011 392.518005 451 C 396.434998 446.875 403.208008 439.674988 407.569 435 C 411.929993 430.325012 418.910004 422.899994 423.07901 418.5 C 427.248993 414.100006 446.20401 394.075012 465.200012 374 C 514.981995 321.391998 539.281982 298 544.14801 298 C 550.590027 298 577.859009 325.213013 659.890015 413.5 C 684.929993 440.450012 705.885986 462.993988 706.458008 463.598999 C 707.031006 464.203003 711.809998 469.377991 717.078003 475.098999 C 739.486023 499.433014 791.429993 555.541016 791.976013 556 C 792.302979 556.275024 798.843994 563.25 806.512024 571.5 C 814.179016 579.75 827.663025 594.16803 836.476013 603.539978 C 845.289001 612.911011 859.015991 627.536011 866.97998 636.039978 C 874.94397 644.54303 885.549988 655.775024 890.549988 661 C 895.549988 666.224976 913.090027 684.854004 929.528992 702.39801 C 964.973999 740.22699 971.156006 745.823975 980.890015 748.895996 C 992.674988 752.616028 999.564026 753.265015 1028.5 753.383972 C 1065.959961 753.539001 1072.109985 752.565979 1070.640015 746.71698 C 1069.27002 741.237976 1054.369995 724.044006 1015.450012 683 C 1011.01001 678.325012 1003.599976 670.450012 998.982971 665.5 C 990.116028 656 982.435974 647.940002 958.934998 623.469971 C 950.995972 615.203979 930.031006 592.929016 912.346985 573.969971 C 866.60498 524.932983 859.530029 517.370972 852.025024 509.5 C 848.35498 505.649994 836.419006 492.825012 825.500977 481 C 814.583008 469.174988 794.591003 447.583008 781.075012 433.019012 C 767.559021 418.45401 744.599976 393.70401 730.05603 378.019012 C 715.513 362.333008 700.164001 345.899994 695.948975 341.5 C 686.58197 331.722992 657.072021 299.684998 631.5 271.531006 C 574.515991 208.792969 549.008972 183.03302 543.840027 183.004028 C 543.47699 183.002014 541.002014 184.750977 538.340027 186.891968 Z"/>
    <linearGradient id="linearGradient2" x1="540.565491" y1="600.98523" x2="540.565491" y2="-0.779907" gradientUnits="userSpaceOnUse">
        <stop offset="0" stop-color="#3478f6" stop-opacity="1"/>
        <stop offset="1" stop-color="#53b6f9" stop-opacity="1"/>
    </linearGradient>
    <path id="Path-copy-4" fill="url(#linearGradient2)" fill-rule="evenodd" stroke="none" d="M 538.547974 1.11499 C 533.81897 3.676025 515.690979 21.73999 467.46701 71.945984 C 447.684998 92.541016 419.575012 121.807983 405 136.984985 C 356.515991 187.468994 322.733002 223.184021 291.477997 257 C 239.509995 313.225006 214.514008 339.808014 172.052994 384.01001 C 158.056 398.57901 141.005997 416.350006 134.162994 423.5 C 127.319 430.649994 118.047997 440.325012 113.558998 445 C 85.130096 474.609009 48.398102 513.869019 30.208099 534.088989 C 14.1201 551.971985 6.75805 561.218018 2.91405 568.36499 C 0.255055 573.309021 -0.144948 574.921997 0.363052 578.632996 C 0.695052 581.054016 1.65505 584.366028 2.49605 585.992004 C 4.28005 589.442017 11.1871 596.411011 15.5001 599.112976 C 18.841101 601.205994 26.2321 601.622986 30.5961 599.963013 C 39.2771 596.663025 57.016102 579.703003 110.575996 523.5 C 121.583 511.950012 141.143005 491.466003 154.044006 477.980988 C 166.945007 464.494995 185.824997 444.737 196 434.072998 C 206.175003 423.410004 215.205994 413.967987 216.070007 413.09201 C 217.845993 411.290985 264.674011 361.96701 294.045013 330.962006 C 328.036987 295.07901 342.122009 280.088989 364.013 256.5 C 375.752014 243.850006 392.132996 226.299988 400.415985 217.5 C 408.697998 208.700012 415.929993 201.013 416.487 200.417969 C 426.147003 190.096008 466.006989 147.833984 473.471985 140 C 495.884003 116.478027 535.812988 77.242981 540.385986 74.247009 C 545.213013 71.085022 545.307983 71.067993 548.302002 72.773987 C 553.184021 75.554993 598.403015 121.080017 627.492981 152.5 C 642.26001 168.450012 654.849976 181.950012 655.471985 182.5 C 657.002014 183.85498 718.81897 250.514008 737.5 270.954987 C 745.75 279.981995 759.638 295.048004 768.362 304.43399 C 777.085999 313.820007 797.776978 336.125 814.340027 354 C 830.903992 371.875 851.452026 393.924988 860.002014 403 C 868.552002 412.075012 884.299011 428.950012 894.994019 440.5 C 905.689026 452.049988 921.653992 469.14801 930.469971 478.494995 C 939.286987 487.84201 954.778015 504.266998 964.89502 514.994995 C 994.486023 546.372986 1046.109985 597.416016 1050.150024 599.299988 C 1055.040039 601.578003 1060.079956 601.442017 1065.52002 598.88501 C 1071.599976 596.026978 1078.449951 588.255005 1079.869995 582.590027 C 1082.430054 572.429016 1080.76001 566.895996 1071.77002 555.781982 C 1062.48999 544.307007 1021.450012 499.227997 994.588989 470.998993 C 990.140015 466.322998 965.575012 440.011993 940 412.528992 C 914.424988 385.04599 877.75 345.664001 858.5 325.013 C 839.25 304.362 806.849976 269.490997 786.5 247.520996 C 766.150024 225.552002 734.875 191.84198 717 172.610962 C 699.125 153.380005 672.575012 124.757996 658 109.007019 C 589.336975 34.802979 567.900024 12.596985 556.747986 4.124023 C 549.643005 -1.273987 544.525024 -2.119995 538.547974 1.11499 Z"/>
    <linearGradient id="linearGradient3" x1="1002.624126" y1="355.526921" x2="1002.624126" y2="268.169842" gradientUnits="userSpaceOnUse">
        <stop offset="0" stop-color="#199d86" stop-opacity="1"/>
        <stop offset="1" stop-color="#30edc2" stop-opacity="1"/>
    </linearGradient>
    <path id="Path-copy-5" fill="url(#linearGradient3)" fill-rule="evenodd" stroke="none" d="M 992.286987 270.412994 C 988.869995 271.682007 984.89502 273.493988 983.455017 274.437988 C 974.18103 280.514008 964.5 293.59201 961.585022 303.983002 C 958.151001 316.220001 962.861023 329.536987 975.244995 342.605011 C 986.616028 354.602997 996.603027 357.791992 1011.070007 354.041992 C 1031.069946 348.856995 1040.719971 338.350006 1044.219971 317.924011 C 1046.51001 304.579987 1041.339966 290.101013 1030.449951 279.369995 C 1025.119995 274.119995 1023.099976 272.864014 1016.359985 270.619995 C 1006.73999 267.415985 1000.5 267.362 992.286987 270.412994 Z"/>
    <linearGradient id="linearGradient4" x1="938.70166" y1="145.322036" x2="771.510925" y2="145.322036" gradientUnits="userSpaceOnUse">
        <stop offset="0" stop-color="#1288c7" stop-opacity="1"/>
        <stop offset="1" stop-color="#26ddef" stop-opacity="1"/>
    </linearGradient>
    <path id="Path-copy-6" fill="url(#linearGradient4)" fill-rule="evenodd" stroke="none" d="M 787.002014 61.099976 C 781.26001 62.223999 778.244019 64.497009 774.5 70.518005 C 770.963989 76.205994 770.551025 82.453003 773.336975 88.13501 C 777.929993 97.505005 825.622986 149.52002 875.987 200.088013 C 895.890991 220.072998 904.265015 226.937012 911.752014 229.406006 C 915.916016 230.780029 917.145996 230.801025 921.755005 229.575012 C 929.296021 227.570984 933.172974 224.988037 935.822021 220.205017 C 940.721008 211.356018 939.304016 199.924011 932.06897 189.936035 C 920.76001 174.325012 822.843018 72.593994 812.755005 65.976013 C 808.796997 63.379028 805.039978 61.864014 800.672974 61.104004 C 793.583008 59.869019 793.289978 59.869019 787.002014 61.099976 Z"/>
    <linearGradient id="linearGradient5" x1="147.5" y1="143.563766" x2="317.701233" y2="143.563766" gradientUnits="userSpaceOnUse">
        <stop offset="0" stop-color="#1288c7" stop-opacity="1"/>
        <stop offset="1" stop-color="#26ddef" stop-opacity="1"/>
    </linearGradient>
    <path id="Path-copy-7" fill="url(#linearGradient5)" fill-rule="evenodd" stroke="none" d="M 286.339996 58.632019 C 284.052002 59.442993 278.652008 63.083984 274.339996 66.723022 C 262.354004 76.839966 167.197998 172.367004 159.587997 181.924011 C 148.434006 195.932983 147.5 197.990967 147.5 208.572998 C 147.5 216.760986 147.764008 218.044983 150.205994 221.734985 C 152.294006 224.890015 154.184998 226.299988 158.492996 227.911987 C 169.179001 231.910034 175.604996 230.073975 188 219.483032 C 195.692993 212.910034 240.445007 168.619019 271.872986 136.473999 C 312.044006 95.385986 320.166992 84.174988 317.123993 74.018982 C 315.152008 67.437988 309.721008 62.833984 300.233002 59.697998 C 290.929993 56.622986 291.816986 56.690979 286.339996 58.632019 Z"/>
    <linearGradient id="linearGradient6" x1="79.940765" y1="355.235839" x2="79.940765" y2="270.102287" gradientUnits="userSpaceOnUse">
        <stop offset="0" stop-color="#199d86" stop-opacity="1"/>
        <stop offset="1" stop-color="#30edc2" stop-opacity="1"/>
    </linearGradient>
    <path id="Path-copy-8" fill="url(#linearGradient6)" fill-rule="evenodd" stroke="none" d="M 69.267097 271.053986 C 62.5401 272.381989 58.545101 274.747009 52.760101 280.825989 C 46.189098 287.730988 42.788101 293.397003 39.4081 303.070007 C 36.550098 311.251007 36.660099 314.765991 40.0881 324.787994 C 44.280102 337.044006 55.356098 349.031006 66.140099 352.981995 C 86.274101 360.359985 108.351997 349.174988 119.401001 326 C 122.156998 320.220001 122.5 318.501007 122.5 310.479004 C 122.5 302.309998 122.191002 300.829987 119.228996 294.813995 C 114.954002 286.130005 108.200996 278.725006 101.703003 275.595001 C 96.716103 273.192993 81.231102 269.890015 76.000099 270.113007 C 74.625099 270.17099 71.5951 270.595001 69.267097 271.053986 Z"/>
    <linearGradient id="linearGradient7" x1="542.713463" y1="753.466546" x2="542.713463" y2="411.601891" gradientUnits="userSpaceOnUse">
        <stop offset="0" stop-color="#1288c7" stop-opacity="1"/>
        <stop offset="1" stop-color="#26ddef" stop-opacity="1"/>
    </linearGradient>
    <path id="Path-copy-3" fill="url(#linearGradient7)" fill-rule="evenodd" stroke="none" d="M 538.84198 415.187012 C 528.981018 422.924011 490.506012 462.230988 447.014008 509 C 438.575012 518.075012 428.473999 528.875 424.566986 533 C 420.661011 537.125 411.171997 547.249023 403.481995 555.497986 C 395.791992 563.747986 376.899994 583.786987 361.5 600.030029 C 263.253998 703.655029 232.602005 737.067993 228.490997 745.018005 C 226.666 748.546997 227.709 751.424988 231.248993 752.630981 C 232.487 753.052979 243.850006 753.362976 256.5 753.320007 C 278.595001 753.244019 279.825989 753.135986 287.789001 750.564026 C 294.548004 748.382019 297.317993 746.815002 302.789001 742.073975 C 310.955994 734.999023 335.998993 709.609985 362.045013 682 C 372.681 670.724976 427.25 613.276978 435.5 604.502991 C 468.98999 568.888 510.213013 526.007019 518.497009 518.169983 C 533.432007 504.040009 543.880981 497.23999 547.533997 499.272003 C 556.242981 504.115997 582.192017 529.448975 623.054016 573 C 631.052979 581.525024 647.937988 599.525024 660.577026 613 C 673.215027 626.474976 702.932983 658.424988 726.61499 684 C 750.297974 709.575012 773.460999 734.062012 778.086975 738.414978 C 792.161011 751.656006 798.224976 753.414001 830 753.465027 C 853.815979 753.504028 857.228027 752.822021 857.799988 747.908997 C 858.281982 743.773987 849.870972 733.445984 817.539978 698.47699 C 810.91803 691.315002 801.450012 680.991028 796.5 675.534973 C 766.088989 642.015015 711.825989 583.091003 691.945984 562 C 683.909973 553.474976 668.174988 536.599976 656.979004 524.5 C 597.695007 460.429993 554.689026 416.958008 545.34198 411.653015 C 544.705994 411.291992 541.781006 412.881989 538.84198 415.187012 Z"/>
    <linearGradient id="linearGradient8" x1="541.417274" y1="754.018083" x2="541.417274" y2="621.009996" gradientUnits="userSpaceOnUse">
        <stop offset="0" stop-color="#1d3d52" stop-opacity="1"/>
        <stop offset="1" stop-color="#23435e" stop-opacity="1"/>
    </linearGradient>
    <path id="Path-copy-2" fill="url(#linearGradient8)" fill-rule="evenodd" stroke="none" d="M 538.445984 624.10498 C 532.551025 627.804993 484.556 675.729004 459.934998 702.5 C 427.563995 737.697998 422 744.327026 422 747.695984 C 422 748.474976 424.115997 750.047974 426.701996 751.192017 C 436.492004 755.52301 488.074005 754.692017 503.406006 749.955994 C 507.923004 748.560974 511.588013 746.416992 516.58197 742.247986 C 532.56897 728.901001 538.924011 724.004028 542.421021 722.335999 C 546.057007 720.60199 546.205994 720.612976 550.551025 722.916992 C 552.984009 724.208984 560.775024 730.763 567.862976 737.481995 C 582.414978 751.278992 582.357971 751.250977 600.77002 753.138977 C 614.60199 754.557007 653.39502 753.734009 657.273987 751.940002 C 663.869995 748.888977 662.033997 744.823975 645.541992 725.963989 C 593.913025 666.921021 549.736023 621.057983 544.445984 621.01001 C 543.866028 621.004028 541.166016 622.396973 538.445984 624.10498 Z"/>
</svg>
