<svg width="2869" height="755" viewBox="0 0 2869 755" fill="none" xmlns="http://www.w3.org/2000/svg">
<path fill-rule="evenodd" clip-rule="evenodd" d="M538.548 2.11501C533.819 4.67601 515.691 22.74 467.467 72.946C447.685 93.541 419.575 122.808 405 137.985C356.516 188.469 322.733 224.184 291.478 258C239.51 314.225 214.514 340.808 172.053 385.01C158.056 399.579 141.006 417.35 134.163 424.5C127.319 431.65 118.048 441.325 113.559 446C85.1301 475.609 48.3981 514.869 30.2081 535.089C14.1201 552.972 6.75805 562.218 2.91405 569.365C0.255055 574.309 -0.144948 575.922 0.363052 579.633C0.695052 582.054 1.65505 585.366 2.49605 586.992C4.28005 590.442 11.1871 597.411 15.5001 600.113C18.8411 602.206 26.2321 602.623 30.5961 600.963C39.2771 597.663 57.0161 580.703 110.576 524.5C121.583 512.95 141.143 492.466 154.044 478.981C166.945 465.495 185.825 445.737 196 435.073C206.175 424.41 215.206 414.968 216.07 414.092C217.846 412.291 264.674 362.967 294.045 331.962C328.037 296.079 342.122 281.089 364.013 257.5C375.752 244.85 392.133 227.3 400.416 218.5C408.698 209.7 415.93 202.013 416.487 201.418C426.147 191.096 466.007 148.834 473.472 141C495.884 117.478 535.813 78.243 540.386 75.247C545.213 72.085 545.308 72.068 548.302 73.774C553.184 76.555 598.403 122.08 627.493 153.5C642.26 169.45 654.85 182.95 655.472 183.5C657.002 184.855 718.819 251.514 737.5 271.955C745.75 280.982 759.638 296.048 768.362 305.434C777.086 314.82 797.777 337.125 814.34 355C830.904 372.875 851.452 394.925 860.002 404C868.552 413.075 884.299 429.95 894.994 441.5C905.689 453.05 921.654 470.148 930.47 479.495C939.287 488.842 954.778 505.267 964.895 515.995C994.486 547.373 1046.11 598.416 1050.15 600.3C1055.04 602.578 1060.08 602.442 1065.52 599.885C1071.6 597.027 1078.45 589.255 1079.87 583.59C1082.43 573.429 1080.76 567.896 1071.77 556.782C1062.49 545.307 1021.45 500.228 994.589 471.999C990.14 467.323 965.575 441.012 940 413.529C914.425 386.046 877.75 346.664 858.5 326.013C839.25 305.362 806.85 270.491 786.5 248.521C766.15 226.552 734.875 192.842 717 173.611C699.125 154.38 672.575 125.758 658 110.007C589.337 35.803 567.9 13.597 556.748 5.12401C549.643 -0.273988 544.525 -1.11999 538.548 2.11501ZM286.34 59.632C284.052 60.443 278.652 64.084 274.34 67.723C262.354 77.84 167.198 173.367 159.588 182.924C148.434 196.933 147.5 198.991 147.5 209.573C147.5 217.761 147.764 219.045 150.206 222.735C152.294 225.89 154.185 227.3 158.493 228.912C169.179 232.91 175.605 231.074 188 220.483C195.693 213.91 240.445 169.619 271.873 137.474C312.044 96.386 320.167 85.175 317.124 75.019C315.152 68.438 309.721 63.834 300.233 60.698C290.93 57.623 291.817 57.691 286.34 59.632ZM787.002 62.1C781.26 63.224 778.244 65.497 774.5 71.518C770.964 77.206 770.551 83.453 773.337 89.135C777.93 98.505 825.623 150.52 875.987 201.088C895.891 221.073 904.265 227.937 911.752 230.406C915.916 231.78 917.146 231.801 921.755 230.575C929.296 228.571 933.173 225.988 935.822 221.205C940.721 212.356 939.304 200.924 932.069 190.936C920.76 175.325 822.843 73.594 812.755 66.976C808.797 64.379 805.04 62.864 800.673 62.104C793.583 60.869 793.29 60.869 787.002 62.1ZM538.34 186.892C535.678 189.033 522.211 202.195 508.414 216.142C485.271 239.536 463.293 263.011 376.597 356.936C359.05 375.946 338.333 398.25 330.56 406.5C322.786 414.75 310.16 428.25 302.502 436.5C289.029 451.014 280.925 459.669 243.979 499C209.126 536.104 197.149 548.83 179.5 567.517C150.187 598.552 129.45 620.554 113.507 637.533C105.26 646.315 94.4461 657.775 89.4741 663C79.7241 673.247 59.4391 694.97 40.9181 715C16.7091 741.181 12.6671 747.096 16.4221 750.85C18.8871 753.316 52.0931 754.647 75.5001 753.219C96.5571 751.934 106.549 749.38 116.452 742.752C124.619 737.285 158.223 703.611 193 666.044C194.925 663.965 209.065 648.592 224.422 631.882C239.779 615.172 253.089 600.825 253.999 600C254.91 599.175 270.234 582.75 288.053 563.5C341.296 505.982 384.941 458.98 392.518 451C396.435 446.875 403.208 439.675 407.569 435C411.93 430.325 418.91 422.9 423.079 418.5C427.249 414.1 446.204 394.075 465.2 374C514.982 321.392 539.282 298 544.148 298C550.59 298 577.859 325.213 659.89 413.5C684.93 440.45 705.886 462.994 706.458 463.599C707.031 464.203 711.81 469.378 717.078 475.099C739.486 499.433 791.43 555.541 791.976 556C792.303 556.275 798.844 563.25 806.512 571.5C814.179 579.75 827.663 594.168 836.476 603.54C845.289 612.911 859.016 627.536 866.98 636.04C874.944 644.543 885.55 655.775 890.55 661C895.55 666.225 913.09 684.854 929.529 702.398C964.974 740.227 971.156 745.824 980.89 748.896C992.675 752.616 999.564 753.265 1028.5 753.384C1065.96 753.539 1072.11 752.566 1070.64 746.717C1069.27 741.238 1054.37 724.044 1015.45 683C1011.01 678.325 1003.6 670.45 998.983 665.5C990.116 656 982.436 647.94 958.935 623.47C950.996 615.204 930.031 592.929 912.347 573.97C866.605 524.933 859.53 517.371 852.025 509.5C848.355 505.65 836.419 492.825 825.501 481C814.583 469.175 794.591 447.583 781.075 433.019C767.559 418.454 744.6 393.704 730.056 378.019C715.513 362.333 700.164 345.9 695.949 341.5C686.582 331.723 657.072 299.685 631.5 271.531C574.516 208.793 549.009 183.033 543.84 183.004C543.477 183.002 541.002 184.751 538.34 186.892ZM1136.45 205.261C1136.19 205.954 1136.09 220.017 1136.23 236.511L1136.5 266.5L1195.41 266.758C1240.52 266.956 1254.67 267.307 1255.85 268.258C1257.07 269.249 1257.23 269.247 1256.63 268.25C1256.17 267.481 1256.44 267 1257.32 267C1258.4 267 1257.8 269.401 1254.88 276.75C1252.75 282.113 1250.6 287.4 1250.1 288.5C1248.18 292.78 1246.01 297.94 1241.5 309C1236.96 320.129 1235.96 322.529 1232.72 330C1231.89 331.925 1230.21 335.975 1228.98 339C1227.76 342.025 1226.18 345.85 1225.48 347.5C1224.77 349.15 1222.08 355.675 1219.5 362C1215.07 372.852 1214.02 375.349 1210.58 383.25C1209.81 385.038 1207.51 390.55 1205.49 395.5C1203.46 400.45 1201.17 405.962 1200.4 407.75C1199.63 409.538 1198.37 412.462 1197.6 414.25C1196.82 416.038 1194.08 422.675 1191.5 429C1186.9 440.265 1185.53 443.538 1182.5 450.401C1181.68 452.272 1181 454.077 1181 454.412C1181 454.747 1180.05 457.154 1178.88 459.761C1175.72 466.847 1174.63 469.433 1169.5 482C1166.92 488.325 1164.18 494.962 1163.4 496.75C1162.63 498.538 1161.37 501.462 1160.6 503.25C1159.82 505.038 1157.08 511.675 1154.49 518C1151.91 524.325 1148.72 531.876 1147.4 534.78C1146.08 537.683 1145 540.327 1145 540.655C1145 540.982 1143.82 544.006 1142.37 547.375C1138.31 556.834 1137.46 558.86 1133.6 568.262L1130 577.023V607.405C1130 634.186 1130.19 637.858 1131.58 638.393C1133.64 639.183 1325.8 639.161 1328.75 638.37L1331 637.767V607.419C1331 578.438 1330.91 577.024 1329.07 576.035C1327.79 575.353 1305.78 575 1264.57 575C1230.16 575 1202 574.815 1202 574.589C1202 573.071 1206.44 563 1207.11 563C1207.56 563 1207.64 562.212 1207.28 561.25C1206.7 559.709 1206.83 559.666 1208.34 560.893C1209.28 561.658 1210.34 561.996 1210.69 561.643C1211.04 561.289 1210.81 561 1210.17 561C1208.83 561 1208.58 555.881 1209.84 554.45C1210.3 553.928 1212.59 548.775 1214.94 543C1219.05 532.869 1220.37 529.726 1223.42 522.75C1224.2 520.962 1225.8 517.025 1226.97 514C1228.14 510.975 1229.7 507.15 1230.44 505.5C1231.19 503.85 1233.91 497.325 1236.48 491C1239.05 484.675 1241.84 477.925 1242.68 476C1243.52 474.075 1244.56 471.6 1245 470.5C1245.44 469.4 1246.48 466.925 1247.31 465C1248.15 463.075 1250.49 457.45 1252.51 452.5C1256.1 443.75 1257.47 440.49 1260.42 433.75C1261.2 431.962 1263.95 425.325 1266.52 419C1269.09 412.675 1271.81 406.15 1272.56 404.5C1273.3 402.85 1274.86 399.025 1276.03 396C1277.2 392.975 1278.8 389.038 1279.58 387.25C1282.54 380.477 1283.91 377.239 1287.49 368.5C1289.51 363.55 1291.85 357.925 1292.69 356C1293.52 354.075 1294.56 351.6 1295 350.5C1295.44 349.4 1296.48 346.925 1297.31 345C1298.15 343.075 1300.49 337.45 1302.51 332.5C1306.21 323.475 1307.71 319.927 1310.5 313.599C1311.32 311.728 1312 309.923 1312 309.588C1312 309.253 1312.95 306.846 1314.12 304.239C1317.3 297.1 1318.39 294.518 1323.49 282C1326.07 275.675 1328.81 269.193 1329.59 267.596C1330.7 265.3 1331 258.676 1331 235.928C1331 220.108 1330.73 206.452 1330.39 205.582C1329.84 204.155 1320.37 204 1233.36 204C1156.7 204 1136.84 204.258 1136.45 205.261ZM1367.75 359.745C1367.43 557.469 1367.9 637.25 1369.39 638.235C1370.72 639.113 1551.14 639.268 1553.42 638.393C1554.81 637.858 1555 634.236 1555 607.975C1555 591.579 1554.73 577.452 1554.39 576.582C1553.85 575.164 1547.72 575 1495.39 575H1437V512.51V450.02L1483.75 449.76L1530.5 449.5L1530.77 419C1531.01 391.214 1530.88 388.389 1529.32 387.25C1528.02 386.294 1516.98 386 1482.31 386H1437V326.508V267.016L1495.75 266.758L1554.5 266.5V235.5V204.5L1461.25 204.245L1368 203.99L1367.75 359.745ZM1596.76 382.25C1596.62 480.288 1596.72 578.05 1597 599.5L1597.5 638.5L1626 638.78C1641.68 638.935 1655.51 638.814 1656.75 638.511L1659 637.962V485.781C1659 389.842 1659.35 333.951 1659.95 334.55C1660.47 335.072 1661.63 338.2 1662.54 341.5C1663.44 344.8 1664.61 349.075 1665.15 351C1665.69 352.925 1666.51 356.075 1666.97 358C1667.84 361.647 1672.59 379.054 1678.16 399C1678.69 400.925 1679.51 404.075 1679.97 406C1680.43 407.925 1681.72 412.875 1682.85 417C1687.57 434.303 1688.21 436.64 1689.02 439.5C1689.48 441.15 1690.76 445.875 1691.85 450C1694.81 461.171 1699.97 480.209 1702.15 488C1702.69 489.925 1703.51 493.075 1703.97 495C1704.74 498.239 1706.08 503.194 1711.96 524.5C1713.17 528.9 1714.99 535.65 1716 539.5C1717.02 543.35 1718.58 549.2 1719.47 552.5C1720.37 555.8 1722.02 561.875 1723.14 566C1724.26 570.125 1725.56 574.85 1726.02 576.5C1726.48 578.15 1727.76 582.875 1728.85 587C1731.81 598.171 1736.97 617.209 1739.15 625C1739.69 626.925 1740.49 630.179 1740.93 632.232C1742.46 639.403 1740.43 639.055 1778.88 638.763L1813.5 638.5V421.5V204.5H1783H1752.5L1752.25 327.832C1752.05 422.731 1751.72 451.072 1750.8 450.767C1749.55 450.351 1749.05 448.96 1746.02 437.5C1741.65 420.986 1739.5 413.047 1735.85 400C1735.31 398.075 1734.49 394.925 1734.03 393C1731.79 383.717 1725.7 361.179 1724.34 357.193C1723.51 354.728 1723.02 351.673 1723.26 350.405C1723.51 349.135 1723.15 347.889 1722.48 347.63C1721.8 347.371 1721.02 345.886 1720.74 344.329C1720.46 342.773 1719.3 338.125 1718.17 334C1717.03 329.875 1715.37 323.8 1714.46 320.5C1713.56 317.2 1712.39 312.925 1711.85 311C1711.31 309.075 1710.49 305.925 1710.03 304C1709.57 302.075 1708.28 297.125 1707.15 293C1702.45 275.763 1701.78 273.339 1700.85 270C1700.31 268.075 1699.48 264.925 1699 263C1698.52 261.075 1697.69 257.925 1697.16 256C1696.62 254.075 1695.26 249.125 1694.14 245C1690.94 233.226 1688.91 225.796 1687.85 222C1686.68 217.845 1685.35 212.644 1684.4 208.5C1684.01 206.85 1683.21 205.169 1682.6 204.765C1681.99 204.361 1662.49 204.024 1639.26 204.015L1597.01 204L1596.76 382.25ZM1861.61 205.569C1861.28 206.446 1861 303.861 1861 422.047C1861 633.472 1861.03 636.946 1862.93 637.965C1865.23 639.194 1927.84 639.391 1929.75 638.174C1930.75 637.541 1930.95 593.432 1930.75 420.94L1930.5 204.5L1896.36 204.237C1865.88 204.002 1862.16 204.145 1861.61 205.569ZM1958.49 206.245C1958.19 207.485 1958.07 221.55 1958.22 237.5L1958.5 266.5L1993.75 266.763L2029 267.026V451.978C2029 633.811 2029.03 636.947 2030.93 637.965C2033.01 639.078 2094.6 639.474 2097.42 638.393C2098.85 637.843 2099 620.526 2099 452.406V267.026L2134.25 266.763L2169.5 266.5V235.5V204.5L2064.27 204.245L1959.04 203.991L1958.49 206.245ZM2200.57 204.888C2200.26 205.391 2200 302.905 2199.99 421.586C2199.98 594.14 2200.23 637.529 2201.24 638.169C2202.96 639.262 2267.75 639.22 2268.42 638.125C2268.72 637.644 2269.08 596.108 2269.23 545.822L2269.5 454.395L2272 453.947C2276.57 453.129 2343.82 453.486 2344.67 454.333C2345.12 454.791 2345.72 496.416 2346 546.833L2346.5 638.5L2380 638.742C2398.42 638.875 2414 638.65 2414.62 638.242C2416.1 637.26 2416.4 586.297 2416.18 373.25L2416 204H2381H2346.01L2345.75 296.75L2345.5 389.5H2307.5H2269.5L2269 297L2268.5 204.5L2234.82 204.237C2215.22 204.084 2200.9 204.356 2200.57 204.888ZM2560.61 205.569C2560.28 206.446 2560 303.861 2560 422.047C2560 633.472 2560.03 636.946 2561.93 637.965C2564.23 639.194 2626.84 639.391 2628.75 638.174C2629.75 637.541 2629.95 593.432 2629.75 420.94L2629.5 204.5L2595.36 204.237C2564.88 204.002 2561.16 204.145 2560.61 205.569ZM2657.49 206.245C2657.19 207.485 2657.07 221.55 2657.22 237.5L2657.5 266.5L2692.75 266.763L2728 267.026V451.978C2728 633.811 2728.03 636.947 2729.93 637.965C2732.01 639.078 2793.6 639.474 2796.42 638.393C2797.85 637.843 2798 620.526 2798 452.406V267.026L2833.25 266.763L2868.5 266.5V235.5V204.5L2763.27 204.245L2658.04 203.991L2657.49 206.245ZM992.287 271.413C988.87 272.682 984.895 274.494 983.455 275.438C974.181 281.514 964.5 294.592 961.585 304.983C958.151 317.22 962.861 330.537 975.245 343.605C986.616 355.603 996.603 358.792 1011.07 355.042C1031.07 349.857 1040.72 339.35 1044.22 318.924C1046.51 305.58 1041.34 291.101 1030.45 280.37C1025.12 275.12 1023.1 273.864 1016.36 271.62C1006.74 268.416 1000.5 268.362 992.287 271.413ZM69.2671 272.054C62.5401 273.382 58.5451 275.747 52.7601 281.826C46.1891 288.731 42.7881 294.397 39.4081 304.07C36.5501 312.251 36.6601 315.766 40.0881 325.788C44.2801 338.044 55.3561 350.031 66.1401 353.982C86.2741 361.36 108.352 350.175 119.401 327C122.157 321.22 122.5 319.501 122.5 311.479C122.5 303.31 122.191 301.83 119.229 295.814C114.954 287.13 108.201 279.725 101.703 276.595C96.7161 274.193 81.2311 270.89 76.0001 271.113C74.6251 271.171 71.5951 271.595 69.2671 272.054ZM538.842 415.187C528.981 422.924 490.506 462.231 447.014 509C438.575 518.075 428.474 528.875 424.567 533C420.661 537.125 411.172 547.249 403.482 555.498C395.792 563.748 376.9 583.787 361.5 600.03C263.254 703.655 232.602 737.068 228.491 745.018C226.666 748.547 227.709 751.425 231.249 752.631C232.487 753.053 243.85 753.363 256.5 753.32C278.595 753.244 279.826 753.136 287.789 750.564C294.548 748.382 297.318 746.815 302.789 742.074C310.956 734.999 335.999 709.61 362.045 682C372.681 670.725 390.185 652.265 400.942 640.978C411.699 629.691 427.25 613.277 435.5 604.503C468.99 568.888 510.213 526.007 518.497 518.17C533.432 504.04 543.881 497.24 547.534 499.272C556.243 504.116 582.192 529.449 623.054 573C631.053 581.525 647.938 599.525 660.577 613C673.215 626.475 702.933 658.425 726.615 684C750.298 709.575 773.461 734.062 778.087 738.415C792.161 751.656 798.225 753.414 830 753.465C853.816 753.504 857.228 752.822 857.8 747.909C858.282 743.774 849.871 733.446 817.54 698.477C810.918 691.315 801.45 680.991 796.5 675.535C766.089 642.015 711.826 583.091 691.946 562C683.91 553.475 668.175 536.6 656.979 524.5C597.695 460.43 554.689 416.958 545.342 411.653C544.706 411.292 541.781 412.882 538.842 415.187ZM1751.93 456.25C1751.87 458.974 1751.72 459.176 1751 457.5C1749.81 454.737 1749.81 453 1751 453C1751.55 453 1751.97 454.462 1751.93 456.25ZM538.446 624.105C532.551 627.805 484.556 675.729 459.935 702.5C427.564 737.698 422 744.327 422 747.696C422 748.475 424.116 750.048 426.702 751.192C436.492 755.523 488.074 754.692 503.406 749.956C507.923 748.561 511.588 746.417 516.582 742.248C532.569 728.901 538.924 724.004 542.421 722.336C546.057 720.602 546.206 720.613 550.551 722.917C552.984 724.209 560.775 730.763 567.863 737.482C582.415 751.279 582.358 751.251 600.77 753.139C614.602 754.557 653.395 753.734 657.274 751.94C663.87 748.889 662.034 744.824 645.542 725.964C593.913 666.921 549.736 621.058 544.446 621.01C543.866 621.004 541.166 622.397 538.446 624.105Z" fill="white"/>
</svg>
