<?xml version="1.0" encoding="UTF-8"?>
<!-- Generated by Pixelmator Pro 3.6.15 -->
<svg width="1081" height="1060" viewBox="0 0 1081 1060" xmlns="http://www.w3.org/2000/svg">
    <path id="Path-copy" fill="#1d8ed5" fill-rule="evenodd" stroke="none" d="M 18.954931 793.769348 C 18.7955 794.194275 18.734198 802.817261 18.820051 812.930969 L 18.98562 831.319397 L 55.10762 831.4776 C 82.767815 831.598999 91.444214 831.814209 92.167717 832.397339 C 92.915771 833.005005 93.013893 833.003784 92.646011 832.392456 C 92.363976 831.920898 92.529465 831.625977 93.069061 831.625977 C 93.731339 831.625977 93.363449 833.098206 91.57296 837.604431 C 90.266899 840.892883 88.948563 844.134705 88.641975 844.809204 C 87.464729 847.433594 86.134125 850.597534 83.368706 857.379211 C 80.584885 864.203247 79.97171 865.674805 77.985039 870.255859 C 77.476135 871.436157 76.445969 873.919556 75.69178 875.774414 C 74.943726 877.629211 73.974945 879.974609 73.545677 880.986328 C 73.110352 881.998108 71.460876 885.999023 69.878922 889.877319 C 67.162529 896.531494 66.518745 898.062622 64.409393 902.907227 C 63.937317 904.003601 62.526989 907.383423 61.288368 910.41864 C 60.04361 913.453857 58.639496 916.833618 58.167343 917.929993 C 57.695187 919.026367 56.922585 920.819275 56.450432 921.915588 C 55.972137 923.011963 54.292053 927.081543 52.710094 930.9599 C 49.889519 937.86731 49.049473 939.874207 47.191544 944.082397 C 46.688778 945.229614 46.271786 946.336426 46.271786 946.541809 C 46.271786 946.747253 45.689301 948.223145 44.971863 949.821655 C 43.034218 954.166626 42.365883 955.752319 39.220306 963.458008 C 37.638348 967.336365 35.95826 971.405945 35.479969 972.502319 C 35.007813 973.598633 34.23521 975.391602 33.763058 976.487915 C 33.284763 977.58429 31.604679 981.653931 30.016582 985.532227 C 28.434626 989.410522 26.478567 994.040588 25.669212 995.821289 C 24.859783 997.601318 24.197584 999.222534 24.197584 999.423645 C 24.197584 999.624146 23.474009 1001.478394 22.584938 1003.544189 C 20.095497 1009.344177 19.574242 1010.586426 17.207405 1016.351501 L 15 1021.723511 L 15 1040.352905 C 15 1056.774292 15.116467 1059.025757 15.968785 1059.353882 C 17.231956 1059.838257 135.059158 1059.824829 136.867996 1059.339722 L 138.247635 1058.970093 L 138.247635 1040.36145 C 138.247635 1022.591125 138.192459 1021.724121 137.064178 1021.117676 C 136.279373 1020.699524 122.78344 1020.483032 97.514557 1020.483032 C 76.415359 1020.483032 59.148403 1020.369629 59.148403 1020.231018 C 59.148403 1019.300232 61.870853 1013.125 62.281704 1013.125 C 62.557678 1013.125 62.606705 1012.641785 62.385971 1012.051941 C 62.030285 1011.106995 62.110001 1011.080688 63.035896 1011.833008 C 63.612316 1012.302124 64.262238 1012.509338 64.476837 1012.292908 C 64.691505 1012.075867 64.550484 1011.898621 64.158051 1011.898621 C 63.336342 1011.898621 63.183052 1008.759766 63.955654 1007.882385 C 64.237762 1007.562256 65.641876 1004.402588 67.082817 1000.861511 C 69.60302 994.649475 70.412376 992.72229 72.282578 988.444824 C 72.760796 987.34845 73.741936 984.934387 74.459297 983.079529 C 75.176735 981.22467 76.133247 978.879272 76.58699 977.867554 C 77.046867 976.855835 78.714752 972.854919 80.290573 968.976563 C 81.86647 965.098267 83.577164 960.959351 84.092285 959.778992 C 84.60733 958.598633 85.245049 957.081055 85.514809 956.406555 C 85.784569 955.732056 86.422295 954.214478 86.931274 953.034119 C 87.44632 951.85376 88.881119 948.404663 90.119743 945.369446 C 92.321007 940.004211 93.161049 938.005249 94.969955 933.872437 C 95.448174 932.776123 97.134399 928.706482 98.710289 924.828186 C 100.28611 920.949829 101.953995 916.948914 102.413872 915.937195 C 102.867615 914.925415 103.824127 912.580078 104.541565 910.72522 C 105.258926 908.870361 106.240067 906.456299 106.718285 905.359985 C 108.533325 901.206909 109.373367 899.221497 111.568497 893.862976 C 112.807114 890.827759 114.24192 887.378662 114.756958 886.198303 C 115.265945 885.017944 115.903664 883.500366 116.173424 882.825867 C 116.443184 882.151367 117.08091 880.633789 117.58989 879.45343 C 118.104935 878.273071 119.539734 874.823975 120.778358 871.788757 C 123.047066 866.254883 123.96682 864.079346 125.677597 860.199219 C 126.180367 859.051941 126.597351 857.94519 126.597351 857.739746 C 126.597351 857.534363 127.17984 856.058472 127.897278 854.4599 C 129.847198 850.082458 130.515533 848.499268 133.6427 840.823608 C 135.224655 836.945251 136.904816 832.970703 137.383026 831.991455 C 138.063644 830.583618 138.247635 826.521973 138.247635 812.573486 C 138.247635 802.873169 138.082062 794.499634 137.873596 793.966187 C 137.536331 793.091187 131.729599 792.996094 78.37748 792.996094 C 31.37167 792.996094 19.194077 793.154297 18.954931 793.769348 Z M 160.781708 888.494629 C 160.585526 1009.733521 160.873703 1058.653076 161.787323 1059.256958 C 162.602814 1059.795288 273.231384 1059.890381 274.629425 1059.353882 C 275.48175 1059.025757 275.598206 1056.804932 275.598206 1040.702393 C 275.598206 1030.648804 275.432648 1021.986572 275.224182 1021.453064 C 274.893066 1020.583618 271.134308 1020.483032 239.047028 1020.483032 L 203.243881 1020.483032 L 203.243881 982.165894 L 203.243881 943.848755 L 231.909698 943.689331 L 260.5755 943.529907 L 260.741058 924.828186 C 260.888214 907.790527 260.808502 906.05835 259.851929 905.359985 C 259.05484 904.773743 252.2854 904.593506 231.026764 904.593506 L 203.243881 904.593506 L 203.243881 868.114624 L 203.243881 831.635803 L 239.267761 831.4776 L 275.291626 831.319397 L 275.291626 812.311035 L 275.291626 793.302734 L 218.113312 793.146362 L 160.934998 792.98999 Z M 301.204285 902.294067 C 301.118439 962.408264 301.179749 1022.35321 301.35144 1035.505737 L 301.658051 1059.419434 L 319.133453 1059.591187 C 328.748016 1059.686157 337.22818 1059.612061 337.988495 1059.42627 L 339.368134 1059.0896 L 339.368134 965.776428 C 339.368134 906.94928 339.582733 872.678467 339.950623 873.045776 C 340.26947 873.365845 340.980774 875.283875 341.538788 877.307312 C 342.090576 879.330811 342.808014 881.952087 343.13916 883.132446 C 343.470215 884.312805 343.973053 886.244324 344.255096 887.424683 C 344.788544 889.660889 347.701111 900.334351 351.116547 912.564697 C 351.441467 913.745056 351.944305 915.676575 352.226349 916.856934 C 352.508453 918.037292 353.299377 921.07251 353.992279 923.601807 C 356.886444 934.211548 357.27887 935.644531 357.775574 937.398193 C 358.057617 938.409912 358.842499 941.30719 359.510834 943.836487 C 361.325867 950.686279 364.489777 962.359863 365.826538 967.137085 C 366.157593 968.317383 366.660431 970.248901 366.942474 971.42926 C 367.414642 973.415344 368.236267 976.453613 371.841705 989.517822 C 372.58371 992.21582 373.699646 996.354736 374.318939 998.715454 C 374.944397 1001.076111 375.900909 1004.663208 376.446655 1006.686646 C 376.998505 1008.710144 378.010254 1012.435181 378.697021 1014.964478 C 379.383759 1017.493835 380.180908 1020.391052 380.462952 1021.402832 C 380.744995 1022.414551 381.529877 1025.311768 382.198212 1027.841064 C 384.013245 1034.690918 387.177155 1046.36438 388.513916 1051.141602 C 388.844971 1052.322021 389.335541 1054.317261 389.605377 1055.576172 C 390.543457 1059.973145 389.298798 1059.759766 412.875214 1059.580811 L 434.103241 1059.419434 L 434.103241 926.361084 L 434.103241 793.302734 L 415.401489 793.302734 L 396.699738 793.302734 L 396.546448 868.926514 C 396.423859 927.115906 396.221436 944.493835 395.657379 944.306824 C 394.8909 944.051758 394.58432 943.198792 392.72641 936.171875 C 390.046844 926.045898 388.728516 921.177979 386.490417 913.177917 C 386.159332 911.997559 385.656494 910.06604 385.374481 908.885681 C 384.000977 903.193604 380.266693 889.373901 379.4328 886.92981 C 378.923889 885.418335 378.623444 883.545105 378.770599 882.767639 C 378.923889 881.988892 378.703156 881.224854 378.292297 881.06604 C 377.875397 880.907227 377.397095 879.996704 377.225372 879.041992 C 377.05368 878.087891 376.342438 875.237854 375.649567 872.708496 C 374.950531 870.179199 373.932648 866.454163 373.374634 864.430725 C 372.822845 862.407227 372.105408 859.785889 371.774261 858.605591 C 371.443207 857.425232 370.940369 855.493713 370.658325 854.313354 C 370.376221 853.132996 369.585266 850.097778 368.892395 847.568481 C 366.010437 836.999207 365.59967 835.512878 365.029388 833.465515 C 364.698303 832.285156 364.189331 830.353638 363.89502 829.173279 C 363.600708 827.99292 363.091736 826.061462 362.766815 824.881104 C 362.435669 823.700745 361.601776 820.665527 360.915009 818.13623 C 358.95282 810.916748 357.70813 806.36084 357.058136 804.033203 C 356.34079 801.485474 355.525208 798.296387 354.942719 795.755371 C 354.703583 794.743652 354.213013 793.712891 353.838989 793.46521 C 353.464966 793.217468 341.508087 793.010864 327.26413 793.005371 L 301.357605 792.996094 Z M 463.602966 793.958191 C 463.400635 794.495972 463.228943 854.228149 463.228943 926.696533 C 463.228943 1056.336426 463.247345 1058.466553 464.412384 1059.091431 C 465.822632 1059.844971 504.213348 1059.96582 505.384521 1059.219604 C 505.997711 1058.831421 506.1203 1031.785034 505.997711 926.0177 L 505.844391 793.302734 L 484.910706 793.141479 C 466.221222 792.997375 463.940247 793.085083 463.602966 793.958191 Z M 523.00708 794.372681 C 522.82312 795.133057 522.749512 803.757324 522.841553 813.537415 L 523.013245 831.319397 L 544.627563 831.480652 L 566.241882 831.641968 L 566.241882 945.049377 C 566.241882 1056.544312 566.260315 1058.467285 567.425354 1059.091431 C 568.700684 1059.773926 606.466064 1060.016724 608.195068 1059.353882 C 609.072021 1059.016602 609.16394 1048.398315 609.16394 945.311829 L 609.16394 831.641968 L 630.778259 831.480652 L 652.392578 831.319397 L 652.392578 812.311035 L 652.392578 793.302734 L 587.868469 793.146362 L 523.34436 792.990601 Z M 671.443909 793.540649 C 671.253784 793.84906 671.09436 853.641968 671.088196 926.413818 C 671.082031 1032.219116 671.235352 1058.824097 671.854675 1059.216553 C 672.909302 1059.886719 712.63678 1059.860962 713.047546 1059.189575 C 713.231506 1058.894653 713.452332 1033.425903 713.54425 1002.591919 L 713.709778 946.531372 L 715.242737 946.256714 C 718.044983 945.755127 759.280823 945.973999 759.801941 946.493408 C 760.077942 946.774231 760.445801 972.297485 760.617493 1003.211853 L 760.924072 1059.419434 L 781.465332 1059.567871 C 792.759949 1059.649414 802.313171 1059.511475 802.69342 1059.261353 C 803.600952 1058.65918 803.784729 1027.410034 803.649902 896.775513 L 803.539551 792.996094 L 782.078491 792.996094 L 760.623596 792.996094 L 760.464172 849.867859 L 760.310913 906.739624 L 737.010376 906.739624 L 713.709778 906.739624 L 713.403198 850.021118 L 713.096619 793.302734 L 692.445007 793.141479 C 680.426819 793.047607 671.646118 793.214478 671.443909 793.540649 Z M 892.210449 793.958191 C 892.008057 794.495972 891.836365 854.228149 891.836365 926.696533 C 891.836365 1056.336426 891.854736 1058.466553 893.019714 1059.091431 C 894.430054 1059.844971 932.820862 1059.96582 933.991943 1059.219604 C 934.605103 1058.831421 934.727722 1031.785034 934.605103 926.0177 L 934.451843 793.302734 L 913.518188 793.141479 C 894.828552 792.997375 892.547607 793.085083 892.210449 793.958191 Z M 951.614502 794.372681 C 951.430542 795.133057 951.357056 803.757324 951.448914 813.537415 L 951.620667 831.319397 L 973.234985 831.480652 L 994.849304 831.641968 L 994.849304 945.049377 C 994.849304 1056.544312 994.867737 1058.467285 996.032654 1059.091431 C 997.308105 1059.773926 1035.073486 1060.016724 1036.80249 1059.353882 C 1037.679443 1059.016602 1037.771362 1048.398315 1037.771362 945.311829 L 1037.771362 831.641968 L 1059.38562 831.480652 L 1081 831.319397 L 1081 812.311035 L 1081 793.302734 L 1016.475891 793.146362 L 951.951782 792.990601 Z M 396.350281 947.668823 C 396.313446 949.339111 396.221436 949.463013 395.779968 948.435303 C 395.050354 946.741089 395.050354 945.676025 395.779968 945.676025 C 396.117249 945.676025 396.374756 946.57251 396.350281 947.668823 Z"/>
    <linearGradient id="linearGradient1" x1="543.018711" y1="754.805269" x2="543.018711" y2="184.004" gradientUnits="userSpaceOnUse">
        <stop offset="1e-05" stop-color="#199d86" stop-opacity="1"/>
        <stop offset="1" stop-color="#30edc2" stop-opacity="1"/>
    </linearGradient>
    <path id="Path-copy-copy" fill="url(#linearGradient1)" fill-rule="evenodd" stroke="none" d="M 538.340027 187.891968 C 535.677979 190.03302 522.210999 203.195007 508.414001 217.141968 C 485.270996 240.536011 463.292999 264.010986 376.596985 357.935974 C 359.049988 376.945984 338.333008 399.25 330.559998 407.5 C 322.786011 415.75 310.160004 429.25 302.502014 437.5 C 289.028992 452.013977 280.924988 460.669006 243.979004 500 C 209.126007 537.104004 197.149002 549.830017 179.5 568.517029 C 150.186996 599.552002 129.449997 621.554016 113.507004 638.53302 C 105.260002 647.315002 94.446098 658.775024 89.474098 664 C 79.724098 674.247009 59.439098 695.969971 40.918098 716 C 16.709101 742.18103 12.6671 748.096008 16.4221 751.849976 C 18.8871 754.315979 52.093102 755.646973 75.500099 754.218994 C 96.557098 752.934021 106.549004 750.380005 116.452003 743.752014 C 124.619003 738.284973 158.223007 704.611023 193 667.044006 C 194.925003 664.965027 209.065002 649.59198 224.421997 632.882019 C 239.779007 616.171997 253.089005 601.825012 253.998993 601 C 254.910004 600.174988 270.234009 583.75 288.053009 564.5 C 341.29599 506.981995 384.94101 459.97998 392.518005 452 C 396.434998 447.875 403.208008 440.674988 407.569 436 C 411.929993 431.325012 418.910004 423.899963 423.07901 419.5 C 427.248993 415.099976 446.20401 395.075012 465.200012 375 C 514.981995 322.391968 539.281982 299 544.14801 299 C 550.590027 299 577.859009 326.213013 659.890015 414.5 C 684.929993 441.450012 705.885986 463.993958 706.458008 464.598999 C 707.031006 465.203003 711.809998 470.377991 717.078003 476.098999 C 739.486023 500.432983 791.429993 556.541016 791.976013 557 C 792.302979 557.275024 798.843994 564.25 806.512024 572.5 C 814.179016 580.75 827.663025 595.16803 836.476013 604.539978 C 845.289001 613.911011 859.015991 628.536011 866.97998 637.039978 C 874.94397 645.54303 885.549988 656.775024 890.549988 662 C 895.549988 667.224976 913.090027 685.854004 929.528992 703.39801 C 964.973999 741.22699 971.156006 746.823975 980.890015 749.895996 C 992.674988 753.616028 999.564026 754.265015 1028.5 754.383972 C 1065.959961 754.539001 1072.109985 753.565979 1070.640015 747.71698 C 1069.27002 742.237976 1054.369995 725.044006 1015.450012 684 C 1011.01001 679.325012 1003.599976 671.450012 998.982971 666.5 C 990.116028 657 982.435974 648.940002 958.934998 624.469971 C 950.995972 616.203979 930.031006 593.929016 912.346985 574.969971 C 866.60498 525.932983 859.530029 518.370972 852.025024 510.5 C 848.35498 506.649963 836.419006 493.825012 825.500977 482 C 814.583008 470.174988 794.591003 448.583008 781.075012 434.018982 C 767.559021 419.453979 744.599976 394.703979 730.05603 379.018982 C 715.513 363.333008 700.164001 346.899963 695.948975 342.5 C 686.58197 332.722961 657.072021 300.684998 631.5 272.531006 C 574.515991 209.792969 549.008972 184.03302 543.840027 184.004028 C 543.47699 184.002014 541.002014 185.750977 538.340027 187.891968 Z"/>
    <linearGradient id="linearGradient2" x1="540.565491" y1="601.98523" x2="540.565491" y2="0.220093" gradientUnits="userSpaceOnUse">
        <stop offset="1e-05" stop-color="#3478f6" stop-opacity="1"/>
        <stop offset="1" stop-color="#53b6f9" stop-opacity="1"/>
    </linearGradient>
    <path id="Path-copy-4-copy" fill="url(#linearGradient2)" fill-rule="evenodd" stroke="none" d="M 538.547974 2.11499 C 533.81897 4.676025 515.690979 22.73999 467.46701 72.945984 C 447.684998 93.541016 419.575012 122.807983 405 137.984985 C 356.515991 188.468994 322.733002 224.184021 291.477997 258 C 239.509995 314.224976 214.514008 340.807983 172.052994 385.01001 C 158.056 399.578979 141.005997 417.349976 134.162994 424.5 C 127.319 431.649963 118.047997 441.325012 113.558998 446 C 85.130096 475.609009 48.398102 514.869019 30.208099 535.088989 C 14.1201 552.971985 6.75805 562.218018 2.91405 569.36499 C 0.255055 574.309021 -0.144948 575.921997 0.363052 579.632996 C 0.695052 582.054016 1.65505 585.366028 2.49605 586.992004 C 4.28005 590.442017 11.1871 597.411011 15.5001 600.112976 C 18.841101 602.205994 26.2321 602.622986 30.5961 600.963013 C 39.2771 597.663025 57.016102 580.703003 110.575996 524.5 C 121.583 512.950012 141.143005 492.466003 154.044006 478.980957 C 166.945007 465.494995 185.824997 445.737 196 435.072998 C 206.175003 424.409973 215.205994 414.967957 216.070007 414.09198 C 217.845993 412.290955 264.674011 362.96698 294.045013 331.961975 C 328.036987 296.078979 342.122009 281.088989 364.013 257.5 C 375.752014 244.849976 392.132996 227.299988 400.415985 218.5 C 408.697998 209.700012 415.929993 202.013 416.487 201.417969 C 426.147003 191.096008 466.006989 148.833984 473.471985 141 C 495.884003 117.478027 535.812988 78.242981 540.385986 75.247009 C 545.213013 72.085022 545.307983 72.067993 548.302002 73.773987 C 553.184021 76.554993 598.403015 122.080017 627.492981 153.5 C 642.26001 169.450012 654.849976 182.950012 655.471985 183.5 C 657.002014 184.85498 718.81897 251.513977 737.5 271.954956 C 745.75 280.981995 759.638 296.047974 768.362 305.43396 C 777.085999 314.820007 797.776978 337.125 814.340027 355 C 830.903992 372.875 851.452026 394.924988 860.002014 404 C 868.552002 413.075012 884.299011 429.950012 894.994019 441.5 C 905.689026 453.049988 921.653992 470.14801 930.469971 479.494995 C 939.286987 488.84198 954.778015 505.266968 964.89502 515.994995 C 994.486023 547.372986 1046.109985 598.416016 1050.150024 600.299988 C 1055.040039 602.578003 1060.079956 602.442017 1065.52002 599.88501 C 1071.599976 597.026978 1078.449951 589.255005 1079.869995 583.590027 C 1082.430054 573.429016 1080.76001 567.895996 1071.77002 556.781982 C 1062.48999 545.307007 1021.450012 500.227966 994.588989 471.998962 C 990.140015 467.322998 965.575012 441.011963 940 413.528992 C 914.424988 386.045959 877.75 346.664001 858.5 326.013 C 839.25 305.362 806.849976 270.490967 786.5 248.520996 C 766.150024 226.552002 734.875 192.84198 717 173.610962 C 699.125 154.380005 672.575012 125.757996 658 110.007019 C 589.336975 35.802979 567.900024 13.596924 556.747986 5.124023 C 549.643005 -0.274048 544.525024 -1.119995 538.547974 2.11499 Z"/>
    <linearGradient id="linearGradient3" x1="1002.624126" y1="356.526921" x2="1002.624126" y2="269.169842" gradientUnits="userSpaceOnUse">
        <stop offset="1e-05" stop-color="#199d86" stop-opacity="1"/>
        <stop offset="1" stop-color="#30edc2" stop-opacity="1"/>
    </linearGradient>
    <path id="Path-copy-5-copy" fill="url(#linearGradient3)" fill-rule="evenodd" stroke="none" d="M 992.286987 271.412964 C 988.869995 272.682007 984.89502 274.493958 983.455017 275.437988 C 974.18103 281.513977 964.5 294.59198 961.585022 304.982971 C 958.151001 317.219971 962.861023 330.536987 975.244995 343.60498 C 986.616028 355.602966 996.603027 358.791992 1011.070007 355.041992 C 1031.069946 349.856995 1040.719971 339.349976 1044.219971 318.924011 C 1046.51001 305.579956 1041.339966 291.101013 1030.449951 280.369995 C 1025.119995 275.119995 1023.099976 273.864014 1016.359985 271.619995 C 1006.73999 268.415955 1000.5 268.362 992.286987 271.412964 Z"/>
    <linearGradient id="linearGradient4" x1="938.70166" y1="146.322036" x2="771.510925" y2="146.322036" gradientUnits="userSpaceOnUse">
        <stop offset="1e-05" stop-color="#1288c7" stop-opacity="1"/>
        <stop offset="1" stop-color="#26ddef" stop-opacity="1"/>
    </linearGradient>
    <path id="Path-copy-6-copy" fill="url(#linearGradient4)" fill-rule="evenodd" stroke="none" d="M 787.002014 62.099976 C 781.26001 63.223999 778.244019 65.497009 774.5 71.518005 C 770.963989 77.205994 770.551025 83.453003 773.336975 89.13501 C 777.929993 98.505005 825.622986 150.52002 875.987 201.088013 C 895.890991 221.072998 904.265015 227.937012 911.752014 230.406006 C 915.916016 231.780029 917.145996 231.801025 921.755005 230.575012 C 929.296021 228.570984 933.172974 225.988037 935.822021 221.205017 C 940.721008 212.356018 939.304016 200.924011 932.06897 190.936035 C 920.76001 175.325012 822.843018 73.593994 812.755005 66.976013 C 808.796997 64.379028 805.039978 62.864014 800.672974 62.104004 C 793.583008 60.869019 793.289978 60.869019 787.002014 62.099976 Z"/>
    <linearGradient id="linearGradient5" x1="147.5" y1="144.563766" x2="317.701233" y2="144.563766" gradientUnits="userSpaceOnUse">
        <stop offset="1e-05" stop-color="#1288c7" stop-opacity="1"/>
        <stop offset="1" stop-color="#26ddef" stop-opacity="1"/>
    </linearGradient>
    <path id="Path-copy-7-copy" fill="url(#linearGradient5)" fill-rule="evenodd" stroke="none" d="M 286.339996 59.632019 C 284.052002 60.442993 278.652008 64.083984 274.339996 67.723022 C 262.354004 77.839966 167.197998 173.367004 159.587997 182.924011 C 148.434006 196.932983 147.5 198.990967 147.5 209.572998 C 147.5 217.760986 147.764008 219.044983 150.205994 222.734985 C 152.294006 225.890015 154.184998 227.299988 158.492996 228.911987 C 169.179001 232.910034 175.604996 231.073975 188 220.483032 C 195.692993 213.910034 240.445007 169.619019 271.872986 137.473999 C 312.044006 96.385986 320.166992 85.174988 317.123993 75.018982 C 315.152008 68.437988 309.721008 63.833984 300.233002 60.697998 C 290.929993 57.622986 291.816986 57.690979 286.339996 59.632019 Z"/>
    <linearGradient id="linearGradient6" x1="79.940765" y1="356.235839" x2="79.940765" y2="271.102287" gradientUnits="userSpaceOnUse">
        <stop offset="1e-05" stop-color="#199d86" stop-opacity="1"/>
        <stop offset="1" stop-color="#30edc2" stop-opacity="1"/>
    </linearGradient>
    <path id="Path-copy-8-copy" fill="url(#linearGradient6)" fill-rule="evenodd" stroke="none" d="M 69.267097 272.053955 C 62.5401 273.381958 58.545101 275.747009 52.760101 281.825989 C 46.189098 288.730957 42.788101 294.396973 39.4081 304.070007 C 36.550098 312.250977 36.660099 315.765991 40.0881 325.787964 C 44.280102 338.044006 55.356098 350.031006 66.140099 353.981995 C 86.274101 361.359985 108.351997 350.174988 119.401001 327 C 122.156998 321.219971 122.5 319.500977 122.5 311.479004 C 122.5 303.309998 122.191002 301.829956 119.228996 295.813965 C 114.954002 287.130005 108.200996 279.724976 101.703003 276.594971 C 96.716103 274.192993 81.231102 270.890015 76.000099 271.112976 C 74.625099 271.170959 71.5951 271.594971 69.267097 272.053955 Z"/>
    <linearGradient id="linearGradient7" x1="542.713463" y1="754.466546" x2="542.713463" y2="412.601891" gradientUnits="userSpaceOnUse">
        <stop offset="1e-05" stop-color="#1288c7" stop-opacity="1"/>
        <stop offset="1" stop-color="#26ddef" stop-opacity="1"/>
    </linearGradient>
    <path id="Path-copy-3-copy" fill="url(#linearGradient7)" fill-rule="evenodd" stroke="none" d="M 538.84198 416.187012 C 528.981018 423.924011 490.506012 463.231018 447.014008 510 C 438.575012 519.075012 428.473999 529.875 424.566986 534 C 420.661011 538.125 411.171997 548.249023 403.481995 556.497986 C 395.791992 564.747986 376.899994 584.786987 361.5 601.030029 C 263.253998 704.655029 232.602005 738.067993 228.490997 746.018005 C 226.666 749.546997 227.709 752.424988 231.248993 753.630981 C 232.487 754.052979 243.850006 754.362976 256.5 754.320007 C 278.595001 754.244019 279.825989 754.135986 287.789001 751.564026 C 294.548004 749.382019 297.317993 747.815002 302.789001 743.073975 C 310.955994 735.999023 335.998993 710.609985 362.045013 683 C 372.681 671.724976 427.25 614.276978 435.5 605.502991 C 468.98999 569.888 510.213013 527.007019 518.497009 519.169983 C 533.432007 505.040039 543.880981 498.23999 547.533997 500.272034 C 556.242981 505.116028 582.192017 530.448975 623.054016 574 C 631.052979 582.525024 647.937988 600.525024 660.577026 614 C 673.215027 627.474976 702.932983 659.424988 726.61499 685 C 750.297974 710.575012 773.460999 735.062012 778.086975 739.414978 C 792.161011 752.656006 798.224976 754.414001 830 754.465027 C 853.815979 754.504028 857.228027 753.822021 857.799988 748.908997 C 858.281982 744.773987 849.870972 734.445984 817.539978 699.47699 C 810.91803 692.315002 801.450012 681.991028 796.5 676.534973 C 766.088989 643.015015 711.825989 584.091003 691.945984 563 C 683.909973 554.474976 668.174988 537.599976 656.979004 525.5 C 597.695007 461.429993 554.689026 417.958008 545.34198 412.653015 C 544.705994 412.291992 541.781006 413.882019 538.84198 416.187012 Z"/>
    <linearGradient id="linearGradient8" x1="541.417274" y1="755.018083" x2="541.417274" y2="622.009996" gradientUnits="userSpaceOnUse">
        <stop offset="1e-05" stop-color="#1d3d52" stop-opacity="1"/>
        <stop offset="1" stop-color="#23435e" stop-opacity="1"/>
    </linearGradient>
    <path id="Path-copy-2-copy" fill="url(#linearGradient8)" fill-rule="evenodd" stroke="none" d="M 538.445984 625.10498 C 532.551025 628.804993 484.556 676.729004 459.934998 703.5 C 427.563995 738.697998 422 745.327026 422 748.695984 C 422 749.474976 424.115997 751.047974 426.701996 752.192017 C 436.492004 756.52301 488.074005 755.692017 503.406006 750.955994 C 507.923004 749.560974 511.588013 747.416992 516.58197 743.247986 C 532.56897 729.901001 538.924011 725.004028 542.421021 723.335999 C 546.057007 721.60199 546.205994 721.612976 550.551025 723.916992 C 552.984009 725.208984 560.775024 731.763 567.862976 738.481995 C 582.414978 752.278992 582.357971 752.250977 600.77002 754.138977 C 614.60199 755.557007 653.39502 754.734009 657.273987 752.940002 C 663.869995 749.888977 662.033997 745.823975 645.541992 726.963989 C 593.913025 667.921021 549.736023 622.057983 544.445984 622.01001 C 543.866028 622.004028 541.166016 623.396973 538.445984 625.10498 Z"/>
</svg>
